<svg width="55" height="56" viewBox="0 0 55 56" fill="none" xmlns="http://www.w3.org/2000/svg">
<path d="M27.5 55.5C42.6878 55.5 55 43.1878 55 28C55 12.8122 42.6878 0.5 27.5 0.5C12.3122 0.5 2.86102e-06 12.8122 2.86102e-06 28C2.86102e-06 32.3991 1.03294 36.557 2.86952 40.2443C3.35758 41.2242 3.52003 42.3442 3.23708 43.4017L1.59916 49.5233C0.888128 52.1807 3.31929 54.6119 5.97671 53.9008L12.0983 52.2629C13.1558 51.98 14.2758 52.1424 15.2557 52.6305C18.943 54.4671 23.1009 55.5 27.5 55.5Z" fill="#5271FF"/>
<path d="M38.8852 31.9276L39.8144 26.6311C40.0464 25.3082 39.0144 24.0982 37.654 24.0982H30.8304C30.1542 24.0982 29.6392 23.4999 29.7486 22.8413L30.6214 17.5904C30.7632 16.7374 30.7227 15.8645 30.5025 15.0278C30.3201 14.3347 29.7776 13.7782 29.0642 13.5523L28.8732 13.4918C28.4421 13.3553 27.9715 13.387 27.5649 13.5801C27.1175 13.7927 26.7901 14.1804 26.6688 14.6414L26.0423 17.0222C25.8429 17.7797 25.5526 18.5109 25.1782 19.2018C24.6312 20.2113 23.7854 21.0192 22.9063 21.7659L21.0114 23.3755C20.4772 23.8293 20.1966 24.509 20.2574 25.202L21.327 37.396C21.4251 38.5145 22.3738 39.3731 23.5114 39.3731H29.6336C34.2185 39.3731 38.1314 36.2241 38.8852 31.9276Z" fill="white"/>
<path fill-rule="evenodd" clip-rule="evenodd" d="M16.0984 23.1257C16.6268 23.1032 17.0795 23.4951 17.125 24.0146L18.4046 38.6023C18.4868 39.5394 17.7381 40.347 16.7819 40.347C15.8814 40.347 15.1532 39.6268 15.1532 38.7408V24.0985C15.1532 23.577 15.5699 23.1482 16.0984 23.1257Z" fill="white"/>
</svg>
