<svg width="24" height="24" viewBox="0 0 24 24" fill="none" xmlns="http://www.w3.org/2000/svg">
<g clip-path="url(#clip0_603_6579)">
<path d="M12.0059 0.181763C7.07115 0.181763 5.62792 0.186854 5.34739 0.210126C4.33469 0.294308 3.70453 0.453763 3.018 0.795581C2.48893 1.05831 2.07167 1.36285 1.65986 1.78976C0.909884 2.56831 0.455352 3.52613 0.290812 4.66467C0.210814 5.2174 0.187542 5.33013 0.182815 8.1534C0.180997 9.09449 0.182815 10.333 0.182815 11.9943C0.182815 16.9252 0.188269 18.367 0.211905 18.647C0.293721 19.6325 0.448261 20.2525 0.775524 20.9307C1.40096 22.2289 2.59547 23.2034 4.0027 23.567C4.48996 23.6925 5.02812 23.7616 5.71901 23.7943C6.01173 23.807 8.99527 23.8161 11.9806 23.8161C14.966 23.8161 17.9514 23.8125 18.2368 23.7979C19.0368 23.7603 19.5013 23.6979 20.0149 23.5652C21.4313 23.1998 22.604 22.2398 23.2421 20.9234C23.563 20.2616 23.7257 19.6179 23.7994 18.6839C23.8154 18.4803 23.8221 15.2336 23.8221 11.9912C23.8221 8.74831 23.8148 5.50758 23.7988 5.30394C23.7243 4.35485 23.5616 3.71667 23.2303 3.04213C22.9585 2.48994 22.6567 2.07758 22.2185 1.65594C21.4365 0.909035 20.4802 0.45449 19.3406 0.290126C18.7884 0.210308 18.6784 0.186672 15.8531 0.181763H12.0059Z" fill="url(#paint0_radial_603_6579)"/>
<path d="M12.0059 0.181763C7.07115 0.181763 5.62792 0.186854 5.34739 0.210126C4.33469 0.294308 3.70453 0.453763 3.018 0.795581C2.48893 1.05831 2.07167 1.36285 1.65986 1.78976C0.909884 2.56831 0.455352 3.52613 0.290812 4.66467C0.210814 5.2174 0.187542 5.33013 0.182815 8.1534C0.180997 9.09449 0.182815 10.333 0.182815 11.9943C0.182815 16.9252 0.188269 18.367 0.211905 18.647C0.293721 19.6325 0.448261 20.2525 0.775524 20.9307C1.40096 22.2289 2.59547 23.2034 4.0027 23.567C4.48996 23.6925 5.02812 23.7616 5.71901 23.7943C6.01173 23.807 8.99527 23.8161 11.9806 23.8161C14.966 23.8161 17.9514 23.8125 18.2368 23.7979C19.0368 23.7603 19.5013 23.6979 20.0149 23.5652C21.4313 23.1998 22.604 22.2398 23.2421 20.9234C23.563 20.2616 23.7257 19.6179 23.7994 18.6839C23.8154 18.4803 23.8221 15.2336 23.8221 11.9912C23.8221 8.74831 23.8148 5.50758 23.7988 5.30394C23.7243 4.35485 23.5616 3.71667 23.2303 3.04213C22.9585 2.48994 22.6567 2.07758 22.2185 1.65594C21.4365 0.909035 20.4802 0.45449 19.3406 0.290126C18.7884 0.210308 18.6784 0.186672 15.8531 0.181763H12.0059Z" fill="url(#paint1_radial_603_6579)"/>
<path d="M12.0005 3.27271C9.63039 3.27271 9.33295 3.28307 8.40207 3.32543C7.473 3.36798 6.83884 3.51507 6.28395 3.73089C5.70997 3.9538 5.22307 4.25198 4.73799 4.73725C4.25255 5.22234 3.95438 5.70925 3.73075 6.28307C3.51439 6.83816 3.36713 7.47252 3.32531 8.40125C3.28367 9.33216 3.27277 9.6298 3.27277 12C3.27277 14.3702 3.28331 14.6667 3.32549 15.5976C3.36822 16.5267 3.5153 17.1609 3.73093 17.7158C3.95402 18.2898 4.25219 18.7767 4.73745 19.2618C5.22234 19.7473 5.70924 20.0462 6.28286 20.2691C6.83811 20.4849 7.47246 20.632 8.40134 20.6745C9.33222 20.7169 9.62948 20.7273 11.9994 20.7273C14.3697 20.7273 14.6662 20.7169 15.5971 20.6745C16.5262 20.632 17.1611 20.4849 17.7163 20.2691C18.2901 20.0462 18.7763 19.7473 19.2612 19.2618C19.7466 18.7767 20.0448 18.2898 20.2684 17.716C20.483 17.1609 20.6302 16.5265 20.6739 15.5978C20.7157 14.6669 20.7266 14.3702 20.7266 12C20.7266 9.6298 20.7157 9.33234 20.6739 8.40143C20.6302 7.47234 20.483 6.83816 20.2684 6.28325C20.0448 5.70925 19.7466 5.22234 19.2612 4.73725C18.7758 4.2518 18.2903 3.95361 17.7158 3.73089C17.1594 3.51507 16.5249 3.36798 15.5958 3.32543C14.665 3.28307 14.3686 3.27271 11.9978 3.27271H12.0005ZM11.2176 4.84543C11.45 4.84507 11.7092 4.84543 12.0005 4.84543C14.3306 4.84543 14.6068 4.8538 15.5269 4.89561C16.3778 4.93452 16.8396 5.07671 17.1473 5.19616C17.5545 5.35434 17.8449 5.54343 18.1501 5.84889C18.4556 6.15434 18.6447 6.44525 18.8032 6.85252C18.9227 7.1598 19.065 7.62161 19.1037 8.47252C19.1456 9.39252 19.1546 9.66889 19.1546 11.998C19.1546 14.3271 19.1456 14.6034 19.1037 15.5234C19.0648 16.3743 18.9227 16.8362 18.8032 17.1434C18.645 17.5507 18.4556 17.8407 18.1501 18.146C17.8447 18.4514 17.5547 18.6405 17.1473 18.7987C16.84 18.9187 16.3778 19.0605 15.5269 19.0994C14.607 19.1413 14.3306 19.1503 12.0005 19.1503C9.67021 19.1503 9.39404 19.1413 8.47406 19.0994C7.62318 19.0602 7.16138 18.918 6.85357 18.7985C6.44631 18.6403 6.15541 18.4513 5.84996 18.1458C5.54452 17.8403 5.35543 17.5502 5.19689 17.1427C5.07744 16.8354 4.93508 16.3736 4.89635 15.5227C4.85454 14.6027 4.84617 14.3263 4.84617 11.9958C4.84617 9.66525 4.85454 9.39034 4.89635 8.47034C4.93526 7.61943 5.07744 7.15761 5.19689 6.84998C5.35507 6.44271 5.54452 6.1518 5.84996 5.84634C6.15541 5.54089 6.44631 5.3518 6.85357 5.19325C7.16119 5.07325 7.62318 4.93143 8.47406 4.89234C9.27913 4.85598 9.59112 4.84507 11.2176 4.84325V4.84543ZM16.6589 6.29452C16.0807 6.29452 15.6117 6.76307 15.6117 7.34143C15.6117 7.91961 16.0807 8.38871 16.6589 8.38871C17.2371 8.38871 17.7061 7.91961 17.7061 7.34143C17.7061 6.76325 17.2371 6.29416 16.6589 6.29416V6.29452ZM12.0005 7.51816C9.52549 7.51816 7.51882 9.52489 7.51882 12C7.51882 14.4751 9.52549 16.4809 12.0005 16.4809C14.4755 16.4809 16.4815 14.4751 16.4815 12C16.4815 9.52489 14.4755 7.51816 12.0005 7.51816ZM12.0005 9.09089C13.607 9.09089 14.9095 10.3933 14.9095 12C14.9095 13.6065 13.607 14.9091 12.0005 14.9091C10.3938 14.9091 9.0915 13.6065 9.0915 12C9.0915 10.3933 10.3938 9.09089 12.0005 9.09089Z" fill="white"/>
</g>
<defs>
<radialGradient id="paint0_radial_603_6579" cx="0" cy="0" r="1" gradientUnits="userSpaceOnUse" gradientTransform="translate(6.46144 25.6365) rotate(-90) scale(23.4234 21.7909)">
<stop stop-color="#FFDD55"/>
<stop offset="0.1" stop-color="#FFDD55"/>
<stop offset="0.5" stop-color="#FF543E"/>
<stop offset="1" stop-color="#C837AB"/>
</radialGradient>
<radialGradient id="paint1_radial_603_6579" cx="0" cy="0" r="1" gradientUnits="userSpaceOnUse" gradientTransform="translate(-3.77783 1.88434) rotate(78.678) scale(10.4705 43.1693)">
<stop stop-color="#3771C8"/>
<stop offset="0.128" stop-color="#3771C8"/>
<stop offset="1" stop-color="#6600FF" stop-opacity="0"/>
</radialGradient>
<clipPath id="clip0_603_6579">
<rect width="24" height="24" fill="white"/>
</clipPath>
</defs>
</svg>
