<svg width="166" height="32" viewBox="0 0 166 32" fill="none" xmlns="http://www.w3.org/2000/svg">
<path d="M16 32C24.8366 32 32 24.8366 32 16C32 7.16344 24.8366 0 16 0C7.16344 0 6.55651e-07 7.16344 6.55651e-07 16C6.55651e-07 18.5595 0.600985 20.9786 1.66954 23.124C1.9535 23.6941 2.04801 24.3457 1.88339 24.961L0.930418 28.5226C0.516728 30.0688 1.93122 31.4833 3.47736 31.0696L7.03902 30.1166C7.65429 29.952 8.30593 30.0465 8.87604 30.3305C11.0214 31.399 13.4405 32 16 32Z" fill="#5271FF"/>
<path d="M22.6241 18.2852L23.1647 15.2036C23.2997 14.4339 22.6993 13.7299 21.9078 13.7299H17.9377C17.5442 13.7299 17.2446 13.3817 17.3083 12.9986L17.8161 9.94353C17.8986 9.44721 17.875 8.93936 17.7469 8.45256C17.6408 8.0493 17.3252 7.72549 16.9101 7.59404L16.799 7.55886C16.5481 7.47942 16.2743 7.49791 16.0378 7.61026C15.7774 7.73392 15.587 7.95948 15.5164 8.22774L15.1519 9.61293C15.0359 10.0537 14.8669 10.4791 14.6491 10.8811C14.3309 11.4684 13.8388 11.9384 13.3273 12.3729L12.2248 13.3094C11.914 13.5734 11.7508 13.9688 11.7861 14.3721L12.4085 21.4668C12.4655 22.1175 13.0175 22.6171 13.6793 22.6171H17.2414C19.909 22.6171 22.1855 20.7849 22.6241 18.2852Z" fill="white"/>
<path fill-rule="evenodd" clip-rule="evenodd" d="M9.36632 13.164C9.6738 13.151 9.93715 13.379 9.96366 13.6812L10.7082 22.1686C10.756 22.7138 10.3203 23.1837 9.76404 23.1837C9.24006 23.1837 8.81641 22.7647 8.81641 22.2492V13.73C8.81641 13.4266 9.05885 13.1771 9.36632 13.164Z" fill="white"/>
<path d="M54.3646 11.5307C54.2432 11.134 54.0758 10.779 53.8623 10.4657C53.6537 10.1474 53.4014 9.87563 53.1054 9.65039C52.8142 9.42514 52.4794 9.25621 52.1009 9.14359C51.7225 9.02607 51.31 8.96732 50.8636 8.96732C50.063 8.96732 49.3497 9.17052 48.7237 9.57694C48.0978 9.98335 47.6053 10.5807 47.2462 11.3691C46.892 12.1525 46.7149 13.1074 46.7149 14.2336C46.7149 15.3696 46.892 16.3317 47.2462 17.1201C47.6004 17.9084 48.0929 18.5083 48.7237 18.9196C49.3545 19.326 50.0872 19.5292 50.9218 19.5292C51.6788 19.5292 52.3339 19.3823 52.887 19.0885C53.445 18.7947 53.8745 18.3785 54.1753 17.8399C54.4762 17.2964 54.6266 16.6598 54.6266 15.9302L55.238 16.0257H51.1911V13.8957H57.2395V15.7025C57.2395 16.9903 56.9678 18.1043 56.4244 19.0444C55.8809 19.9846 55.1336 20.7093 54.1826 21.2185C53.2315 21.7229 52.1398 21.975 50.9073 21.975C49.5341 21.975 48.3283 21.6641 47.2899 21.0422C46.2563 20.4155 45.4484 19.5267 44.8661 18.3761C44.2887 17.2205 44 15.8494 44 14.2629C44 13.0486 44.1698 11.964 44.5095 11.0092C44.854 10.0544 45.3344 9.24397 45.9506 8.57804C46.5669 7.90721 47.2899 7.39797 48.1196 7.05031C48.9494 6.69776 49.8519 6.52148 50.8272 6.52148C51.6521 6.52148 52.4212 6.6439 53.1345 6.88873C53.8478 7.12866 54.481 7.47142 55.0342 7.917C55.5922 8.36259 56.0507 8.89142 56.4098 9.50349C56.7689 10.1156 57.0042 10.7913 57.1158 11.5307H54.3646Z" fill="white"/>
<path d="M62.3691 6.72714V21.7694H59.7342V6.72714H62.3691Z" fill="white"/>
<path d="M69.955 21.9897C68.8633 21.9897 67.9171 21.7473 67.1164 21.2626C66.3158 20.7778 65.6947 20.0996 65.2532 19.2281C64.8164 18.3565 64.5981 17.338 64.5981 16.1726C64.5981 15.0072 64.8164 13.9863 65.2532 13.1098C65.6947 12.2333 66.3158 11.5527 67.1164 11.0679C67.9171 10.5832 68.8633 10.3408 69.955 10.3408C71.0468 10.3408 71.993 10.5832 72.7937 11.0679C73.5943 11.5527 74.213 12.2333 74.6497 13.1098C75.0912 13.9863 75.312 15.0072 75.312 16.1726C75.312 17.338 75.0912 18.3565 74.6497 19.2281C74.213 20.0996 73.5943 20.7778 72.7937 21.2626C71.993 21.7473 71.0468 21.9897 69.955 21.9897ZM69.9696 19.8597C70.5616 19.8597 71.0565 19.6957 71.4544 19.3676C71.8523 19.0346 72.1483 18.5891 72.3424 18.0308C72.5413 17.4726 72.6408 16.8508 72.6408 16.1653C72.6408 15.4748 72.5413 14.8505 72.3424 14.2923C72.1483 13.7292 71.8523 13.2812 71.4544 12.9482C71.0565 12.6153 70.5616 12.4488 69.9696 12.4488C69.3631 12.4488 68.8584 12.6153 68.4557 12.9482C68.0578 13.2812 67.7594 13.7292 67.5604 14.2923C67.3663 14.8505 67.2693 15.4748 67.2693 16.1653C67.2693 16.8508 67.3663 17.4726 67.5604 18.0308C67.7594 18.5891 68.0578 19.0346 68.4557 19.3676C68.8584 19.6957 69.3631 19.8597 69.9696 19.8597Z" fill="white"/>
<path d="M77.5483 21.7694V10.4877H80.1031V12.368H80.2195C80.4233 11.7167 80.7727 11.2148 81.2676 10.8623C81.7674 10.5048 82.3376 10.3261 82.9781 10.3261C83.1236 10.3261 83.2862 10.3335 83.4657 10.3481C83.6501 10.3579 83.803 10.3751 83.9243 10.3996V12.8454C83.8127 12.8062 83.6355 12.7719 83.3929 12.7426C83.1552 12.7083 82.9247 12.6911 82.7015 12.6911C82.2211 12.6911 81.7892 12.7964 81.4059 13.007C81.0274 13.2126 80.729 13.4991 80.5107 13.8663C80.2923 14.2336 80.1831 14.6571 80.1831 15.137V21.7694H77.5483Z" fill="white"/>
<path d="M85.6747 21.7694V10.4877H88.3095V21.7694H85.6747ZM86.9994 8.88652C86.5821 8.88652 86.223 8.74697 85.9222 8.46787C85.6214 8.18387 85.4709 7.84355 85.4709 7.44693C85.4709 7.04542 85.6214 6.7051 85.9222 6.426C86.223 6.142 86.5821 6 86.9994 6C87.4216 6 87.7806 6.142 88.0766 6.426C88.3775 6.7051 88.5279 7.04542 88.5279 7.44693C88.5279 7.84355 88.3775 8.18387 88.0766 8.46787C87.7806 8.74697 87.4216 8.88652 86.9994 8.88652Z" fill="white"/>
<path d="M96.6816 10.4877V12.5443H90.0728V10.4877H96.6816ZM91.725 21.7694V9.4227C91.725 8.66373 91.8802 8.03207 92.1908 7.52773C92.5062 7.02338 92.9283 6.64635 93.4572 6.39662C93.9862 6.1469 94.5733 6.02203 95.2186 6.02203C95.6748 6.02203 96.0799 6.05876 96.4341 6.13221C96.7884 6.20566 97.0504 6.27176 97.2202 6.33052L96.6962 8.38707C96.5846 8.3528 96.4438 8.31852 96.274 8.28424C96.1042 8.24507 95.9149 8.22549 95.7063 8.22549C95.2162 8.22549 94.8693 8.34545 94.6655 8.58538C94.4665 8.82042 94.3671 9.15828 94.3671 9.59897V21.7694H91.725Z" fill="white"/>
<path d="M100.383 26C100.024 26 99.6913 25.9706 99.3856 25.9119C99.0847 25.858 98.8445 25.7943 98.665 25.7209L99.2764 23.6497C99.6597 23.7623 100.002 23.8161 100.303 23.8112C100.603 23.8063 100.868 23.7109 101.096 23.5248C101.329 23.3436 101.525 23.04 101.686 22.614L101.911 22.0044L97.8571 10.4877H100.652L103.229 19.0077H103.345L105.929 10.4877H108.731L104.255 23.1355C104.046 23.7329 103.77 24.2446 103.425 24.6706C103.081 25.1015 102.658 25.4296 102.159 25.6548C101.664 25.8849 101.072 26 100.383 26Z" fill="white"/>
<path d="M110.671 21.7694V6.72714H116.377C117.454 6.72714 118.35 6.89852 119.063 7.24128C119.781 7.57914 120.317 8.04187 120.671 8.62945C121.031 9.21704 121.21 9.88297 121.21 10.6272C121.21 11.2393 121.094 11.7633 120.861 12.199C120.628 12.6299 120.315 12.98 119.922 13.2494C119.529 13.5187 119.09 13.7121 118.604 13.8296V13.9765C119.133 14.0059 119.64 14.1699 120.126 14.4686C120.616 14.7624 121.016 15.1786 121.327 15.7172C121.637 16.2558 121.792 16.9071 121.792 17.671C121.792 18.4495 121.606 19.1497 121.232 19.7716C120.858 20.3885 120.295 20.8757 119.543 21.2332C118.791 21.5906 117.845 21.7694 116.705 21.7694H110.671ZM113.371 19.4925H116.275C117.255 19.4925 117.961 19.304 118.393 18.9269C118.83 18.545 119.048 18.0553 119.048 17.4579C119.048 17.0124 118.939 16.6108 118.721 16.2534C118.502 15.8911 118.192 15.6071 117.789 15.4014C117.386 15.1908 116.906 15.0856 116.348 15.0856H113.371V19.4925ZM113.371 13.1245H116.042C116.508 13.1245 116.928 13.0388 117.302 12.8674C117.675 12.6911 117.969 12.4439 118.182 12.1256C118.401 11.8024 118.51 11.4205 118.51 10.9798C118.51 10.3971 118.306 9.91725 117.898 9.54021C117.496 9.16318 116.896 8.97466 116.101 8.97466H113.371V13.1245Z" fill="white"/>
<path d="M128.902 21.9897C127.81 21.9897 126.864 21.7473 126.063 21.2626C125.262 20.7778 124.641 20.0996 124.2 19.2281C123.763 18.3565 123.545 17.338 123.545 16.1726C123.545 15.0072 123.763 13.9863 124.2 13.1098C124.641 12.2333 125.262 11.5527 126.063 11.0679C126.864 10.5832 127.81 10.3408 128.902 10.3408C129.993 10.3408 130.94 10.5832 131.74 11.0679C132.541 11.5527 133.16 12.2333 133.596 13.1098C134.038 13.9863 134.259 15.0072 134.259 16.1726C134.259 17.338 134.038 18.3565 133.596 19.2281C133.16 20.0996 132.541 20.7778 131.74 21.2626C130.94 21.7473 129.993 21.9897 128.902 21.9897ZM128.916 19.8597C129.508 19.8597 130.003 19.6957 130.401 19.3676C130.799 19.0346 131.095 18.5891 131.289 18.0308C131.488 17.4726 131.587 16.8508 131.587 16.1653C131.587 15.4748 131.488 14.8505 131.289 14.2923C131.095 13.7292 130.799 13.2812 130.401 12.9482C130.003 12.6153 129.508 12.4488 128.916 12.4488C128.31 12.4488 127.805 12.6153 127.402 12.9482C127.004 13.2812 126.706 13.7292 126.507 14.2923C126.313 14.8505 126.216 15.4748 126.216 16.1653C126.216 16.8508 126.313 17.4726 126.507 18.0308C126.706 18.5891 127.004 19.0346 127.402 19.3676C127.805 19.6957 128.31 19.8597 128.916 19.8597Z" fill="white"/>
<path d="M141.371 21.9897C140.28 21.9897 139.333 21.7473 138.533 21.2626C137.732 20.7778 137.111 20.0996 136.67 19.2281C136.233 18.3565 136.014 17.338 136.014 16.1726C136.014 15.0072 136.233 13.9863 136.67 13.1098C137.111 12.2333 137.732 11.5527 138.533 11.0679C139.333 10.5832 140.28 10.3408 141.371 10.3408C142.463 10.3408 143.409 10.5832 144.21 11.0679C145.011 11.5527 145.629 12.2333 146.066 13.1098C146.508 13.9863 146.728 15.0072 146.728 16.1726C146.728 17.338 146.508 18.3565 146.066 19.2281C145.629 20.0996 145.011 20.7778 144.21 21.2626C143.409 21.7473 142.463 21.9897 141.371 21.9897ZM141.386 19.8597C141.978 19.8597 142.473 19.6957 142.871 19.3676C143.269 19.0346 143.565 18.5891 143.759 18.0308C143.958 17.4726 144.057 16.8508 144.057 16.1653C144.057 15.4748 143.958 14.8505 143.759 14.2923C143.565 13.7292 143.269 13.2812 142.871 12.9482C142.473 12.6153 141.978 12.4488 141.386 12.4488C140.779 12.4488 140.275 12.6153 139.872 12.9482C139.474 13.2812 139.176 13.7292 138.977 14.2923C138.783 14.8505 138.686 15.4748 138.686 16.1653C138.686 16.8508 138.783 17.4726 138.977 18.0308C139.176 18.5891 139.474 19.0346 139.872 19.3676C140.275 19.6957 140.779 19.8597 141.386 19.8597Z" fill="white"/>
<path d="M157.801 13.4697L155.399 13.7341C155.331 13.4893 155.212 13.2592 155.042 13.0437C154.877 12.8283 154.654 12.6544 154.373 12.5222C154.091 12.39 153.747 12.3239 153.339 12.3239C152.791 12.3239 152.33 12.4439 151.956 12.6838C151.587 12.9237 151.405 13.2347 151.41 13.6166C151.405 13.9447 151.524 14.2115 151.767 14.4172C152.014 14.6228 152.422 14.7918 152.99 14.924L154.897 15.3353C155.954 15.5654 156.741 15.9302 157.255 16.4297C157.774 16.9291 158.036 17.5828 158.041 18.3907C158.036 19.1007 157.83 19.7275 157.422 20.271C157.02 20.8096 156.459 21.2308 155.741 21.5343C155.023 21.8379 154.198 21.9897 153.266 21.9897C151.898 21.9897 150.796 21.7008 149.962 21.123C149.127 20.5403 148.63 19.73 148.47 18.6919L151.039 18.4422C151.156 18.9514 151.403 19.3358 151.781 19.5953C152.16 19.8548 152.652 19.9846 153.259 19.9846C153.885 19.9846 154.387 19.8548 154.766 19.5953C155.149 19.3358 155.341 19.0151 155.341 18.6331C155.341 18.31 155.217 18.0431 154.969 17.8325C154.727 17.622 154.348 17.4604 153.834 17.3478L151.927 16.9438C150.855 16.7186 150.061 16.3391 149.547 15.8054C149.033 15.2667 148.778 14.5861 148.783 13.7635C148.778 13.0682 148.965 12.4659 149.343 11.9567C149.727 11.4425 150.258 11.0459 150.937 10.7668C151.621 10.4828 152.41 10.3408 153.303 10.3408C154.613 10.3408 155.644 10.6224 156.396 11.1855C157.153 11.7486 157.621 12.51 157.801 13.4697Z" fill="white"/>
<path d="M165.796 10.4877V12.5443H159.369V10.4877H165.796ZM160.956 7.7848H163.591V18.3761C163.591 18.7335 163.644 19.0077 163.751 19.1987C163.863 19.3847 164.008 19.5121 164.188 19.5806C164.367 19.6492 164.566 19.6834 164.784 19.6834C164.949 19.6834 165.1 19.6712 165.236 19.6467C165.376 19.6222 165.483 19.6002 165.556 19.5806L166 21.6592C165.859 21.7082 165.658 21.762 165.396 21.8208C165.139 21.8795 164.823 21.9138 164.45 21.9236C163.79 21.9432 163.195 21.8428 162.666 21.6225C162.138 21.3972 161.718 21.0496 161.407 20.5795C161.102 20.1094 160.951 19.5219 160.956 18.8167V7.7848Z" fill="white"/>
</svg>
