<svg width="24" height="24" viewBox="0 0 24 24" fill="none" xmlns="http://www.w3.org/2000/svg">
<path d="M20.3521 10.5208L21.3008 10.837L20.3521 10.5208ZM18.6357 15.6701L17.687 15.3539L17.687 15.3539L18.6357 15.6701ZM8.32987 5.36432L8.01364 4.41564L8.32987 5.36432ZM13.4792 3.64788L13.7954 4.59656L13.4792 3.64788ZM10.4995 15.6701L11.4482 15.3539H11.4482L10.4995 15.6701ZM10.0449 14.5521L9.21395 15.1084L9.21395 15.1084L10.0449 14.5521ZM8.32987 13.5005L8.64609 12.5518H8.64609L8.32987 13.5005ZM9.44793 13.9551L10.0042 13.1241L10.0042 13.1241L9.44793 13.9551ZM2.36806 8.06698L1.50354 7.56439H1.50354L2.36806 8.06698ZM2.36806 10.7978L1.50353 11.3004H1.50353L2.36806 10.7978ZM15.933 21.6319L15.4304 20.7674H15.4304L15.933 21.6319ZM13.2022 21.6319L12.6996 22.4965H12.6996L13.2022 21.6319ZM16.3874 9.02629C16.7801 8.63794 16.7836 8.00478 16.3952 7.6121C16.0069 7.21942 15.3737 7.21591 14.981 7.60426L16.3874 9.02629ZM19.4034 10.2046L17.687 15.3539L19.5844 15.9864L21.3008 10.837L19.4034 10.2046ZM8.64609 6.313L13.7954 4.59656L13.163 2.69919L8.01364 4.41564L8.64609 6.313ZM11.4482 15.3539C11.2715 14.8239 11.1317 14.3778 10.8759 13.9958L9.21395 15.1084C9.28437 15.2136 9.33887 15.3505 9.55083 15.9864L11.4482 15.3539ZM8.01364 14.4492C8.64952 14.6611 8.78644 14.7156 8.89163 14.7861L10.0042 13.1241C9.62216 12.8683 9.17612 12.7285 8.64609 12.5518L8.01364 14.4492ZM10.8759 13.9958C10.6451 13.651 10.349 13.3549 10.0042 13.1241L8.89163 14.7861C9.01911 14.8714 9.12861 14.9809 9.21395 15.1084L10.8759 13.9958ZM8.01364 4.41564C6.21574 5.01494 4.80779 5.48342 3.78953 5.9165C2.82519 6.32665 1.94501 6.805 1.50354 7.56439L3.23258 8.56957C3.30697 8.44162 3.59237 8.17374 4.57231 7.75695C5.49834 7.3631 6.81336 6.92392 8.6461 6.313L8.01364 4.41564ZM8.64609 12.5518C6.81336 11.9409 5.49834 11.5017 4.57231 11.1079C3.59237 10.6911 3.30697 10.4232 3.23258 10.2952L1.50353 11.3004C1.94501 12.0598 2.82519 12.5382 3.78953 12.9483C4.80779 13.3814 6.21574 13.8499 8.01364 14.4492L8.64609 12.5518ZM1.50354 7.56439C0.832155 8.71925 0.832155 10.1456 1.50353 11.3004L3.23258 10.2952C2.92247 9.76181 2.92247 9.103 3.23258 8.56957L1.50354 7.56439ZM17.687 15.3539C17.0761 17.1866 16.6369 18.5017 16.243 19.4277C15.8263 20.4076 15.5584 20.693 15.4304 20.7674L16.4356 22.4965C17.195 22.055 17.6733 21.1748 18.0835 20.2105C18.5166 19.1922 18.9851 17.7843 19.5844 15.9864L17.687 15.3539ZM9.55083 15.9864C10.1501 17.7843 10.6186 19.1922 11.0517 20.2105C11.4618 21.1748 11.9402 22.055 12.6996 22.4965L13.7048 20.7674C13.5768 20.693 13.3089 20.4076 12.8921 19.4277C12.4983 18.5017 12.0591 17.1866 11.4482 15.3539L9.55083 15.9864ZM15.4304 20.7674C14.897 21.0775 14.2382 21.0775 13.7048 20.7674L12.6996 22.4965C13.8544 23.1678 15.2808 23.1678 16.4356 22.4965L15.4304 20.7674ZM21.3008 10.837C22.0398 8.62012 22.6327 6.84952 22.8752 5.48685C23.1163 4.13142 23.0763 2.83403 22.1212 1.87885L20.7069 3.29306C20.939 3.52515 21.1179 3.94598 20.9061 5.13657C20.6956 6.3199 20.1639 7.9231 19.4034 10.2046L21.3008 10.837ZM13.7954 4.59656C16.0769 3.83607 17.6801 3.30444 18.8634 3.09393C20.054 2.88214 20.4749 3.06097 20.7069 3.29306L22.1212 1.87885C21.166 0.923664 19.8686 0.88373 18.5132 1.12485C17.1505 1.36726 15.3799 1.96022 13.163 2.69919L13.7954 4.59656ZM10.8385 14.5141L16.3874 9.02629L14.981 7.60426L9.4321 13.092L10.8385 14.5141Z" fill="#5271FF"/>
</svg>
