<svg width="24" height="24" viewBox="0 0 24 24" fill="none" xmlns="http://www.w3.org/2000/svg">
<path d="M9.76463 9.57447V8.66702C9.46215 8.5914 9.15966 8.59147 8.85718 8.59147C5.0005 8.59147 1.90002 11.6919 1.90002 15.5485C1.90002 17.8928 3.10996 20.0102 4.84925 21.2201L4.77363 21.1445C3.63931 19.9346 3.03434 18.271 3.03434 16.5317C3.03434 12.675 6.05919 9.65009 9.76463 9.57447Z" fill="#25F4EE"/>
<path d="M9.91603 19.7078C11.6553 19.7078 13.0165 18.3466 13.0921 16.6073V1.48308H15.8145C15.7389 1.18059 15.7389 0.878106 15.7389 0.5H11.9578V15.6242C11.8822 17.2879 10.521 18.6491 8.78171 18.6491C8.25236 18.6491 7.72301 18.4979 7.34491 18.271C7.94988 19.1028 8.85733 19.7078 9.91603 19.7078ZM21.0322 6.62532V5.71786C19.9735 5.71786 18.9904 5.41538 18.1586 4.88603C18.9148 5.71786 19.8979 6.39846 21.0322 6.62532Z" fill="#25F4EE"/>
<path d="M18.1585 4.88603C17.3267 3.97858 16.873 2.76864 16.873 1.40745H15.8143C16.1167 2.91988 17.0242 4.12982 18.1585 4.88603ZM8.85718 12.2968C7.11789 12.2968 5.68109 13.7336 5.68109 15.4729C5.68109 16.6829 6.4373 17.7416 7.42038 18.2709C7.04227 17.7416 6.8154 17.1366 6.8154 16.456C6.8154 14.7167 8.25221 13.2799 9.9915 13.2799C10.294 13.2799 10.5965 13.3555 10.899 13.4312V9.57447C10.5965 9.49885 10.294 9.49885 9.9915 9.49885H9.84025V12.3725C9.46215 12.3725 9.15966 12.2968 8.85718 12.2968Z" fill="#FE2C55"/>
<path d="M21.0321 6.6254V9.499C19.066 9.499 17.2511 8.89403 15.8143 7.83533V15.5487C15.8143 19.4054 12.7138 22.5059 8.8571 22.5059C7.34468 22.5059 5.9835 22.0521 4.84918 21.2959C6.13474 22.6571 7.94965 23.4889 9.9158 23.4889C13.7725 23.4889 16.873 20.3885 16.873 16.5318V8.81841C18.3854 9.87711 20.2003 10.4821 22.0908 10.4821V6.70102C21.7883 6.70102 21.4102 6.70102 21.0321 6.6254Z" fill="#FE2C55"/>
<path d="M15.8143 15.5486V7.83518C17.3267 8.89396 19.1416 9.49885 21.0321 9.49885V6.54962C19.8978 6.32276 18.9147 5.71779 18.1585 4.88596C16.9486 4.12974 16.1167 2.84418 15.8899 1.40738H13.0919V16.5317C13.0163 18.1954 11.6551 19.5566 9.9158 19.5566C8.8571 19.5566 7.94965 19.0271 7.34468 18.2709C6.3616 17.8172 5.68101 16.7585 5.68101 15.5486C5.68101 13.8093 7.11781 12.3725 8.8571 12.3725C9.15959 12.3725 9.46207 12.4481 9.76456 12.5237V9.57447C5.9835 9.65009 2.95865 12.7506 2.95865 16.5317C2.95865 18.3466 3.63924 20.0102 4.84918 21.2958C5.9835 22.052 7.34468 22.5814 8.8571 22.5814C12.7138 22.5058 15.8143 19.3296 15.8143 15.5486Z" fill="white"/>
</svg>
