<svg width="23" height="16" viewBox="0 0 23 16" fill="none" xmlns="http://www.w3.org/2000/svg">
<path d="M21.7807 2.66365C21.5284 1.7136 20.7851 0.965391 19.841 0.71147C18.1302 0.25 11.2696 0.25 11.2696 0.25C11.2696 0.25 4.40906 0.25 2.69818 0.71147C1.75411 0.965391 1.01058 1.7136 0.758433 2.66365C0.300049 4.38565 0.300049 7.97859 0.300049 7.97859C0.300049 7.97859 0.300049 11.5713 0.758433 13.2935C1.01058 14.2437 1.75411 14.9917 2.69808 15.2459C4.40896 15.7072 11.2695 15.7072 11.2695 15.7072C11.2695 15.7072 18.1301 15.7072 19.8409 15.2459C20.785 14.9918 21.5283 14.2437 21.7806 13.2936C22.2391 11.5714 22.2391 7.97869 22.2391 7.97869C22.2391 7.97869 22.2391 4.38575 21.7806 2.66374" fill="#FF0000"/>
<path d="M9.02581 11.2407L14.7599 7.97878L9.02581 4.71652V11.2407Z" fill="white"/>
</svg>
